<?xml version="1.0" encoding="UTF-8"?>
<svg id="emoji" enable-background="new 0 0 72 72" version="1.1" viewBox="0 0 72 72" xml:space="preserve" xmlns="http://www.w3.org/2000/svg"><g fill="none" stroke="#333" stroke-linecap="round" stroke-linejoin="round" stroke-miterlimit="10" stroke-width="2">
<path d="m23.9 35.5c-2.4 5.1-13.2 1-13.2 1-0.6-0.3-1-0.8-1.1-1.5l-0.4-2c-0.1-0.5 0-1 0.3-1.4l1.9-3.2c0.9-1.5 2.3-2.8 3.9-3.6l3.7-1.8s3.5-10.9 9.3-11.8c0 0 4.6 4.7-3.5 15 0 0 2 1.4 3.6 4 0 0 15.3-8.9 24.9 10.4 8.9 17.8-8.3 16.7-14.2 15.9-1.5-0.2-2.8-1.1-3.5-2.5-0.6-1.3-0.5-3 3.4-3.5"/><path d="m16.3 20.2c-0.2-3.1 0.8-7.2 4-8.9 0 0 1.9-0.2 3.2 3.2"/><path d="m15 41.2c0.3 2.9 2.1 6.2 6.7 6.8 0 0 1.5 1.8 0 3.3 0 0-1.4 1.2-2.4 2.3-1.3 1.2-0.5 3.4 1.3 3.4h3.9c0.7 0 1.3-0.4 1.7-0.9l3.7-5.9 1.3-4"/><path d="m59 48s4.9-0.1 3.4 3.9-5 3.6-5 3.6"/>
</g></svg>
